<svg width="24" height="24" viewBox="0 0 24 24" fill="none" xmlns="http://www.w3.org/2000/svg">
<g id="Icon">
<path id="Vector" d="M7 7.57501L8.43 9.005C9.34 8.09501 10.61 7.525 12 7.525C13.39 7.525 14.66 8.09501 15.57 9.005L17 7.57501C15.72 6.295 13.95 5.505 12 5.505C10.05 5.505 8.28 6.295 7 7.57501ZM12 1.505C8.98 1.505 6.24 2.735 4.25 4.715L5.66 6.125C7.28 4.505 9.53 3.505 12 3.505C14.47 3.505 16.72 4.505 18.34 6.125L19.75 4.715C17.76 2.735 15.02 1.505 12 1.505ZM14.86 10.515L9.14 10.505C8.51 10.505 8 11.015 8 11.645V21.355C8 21.985 8.51 22.495 9.14 22.495H14.85C15.48 22.495 15.99 21.985 15.99 21.355V11.645C16 11.015 15.49 10.515 14.86 10.515ZM15 20.505H9V12.505H15V20.505Z" fill="#34693F"/>
</g>
</svg>
