<svg width="25" height="25" viewBox="0 0 25 25" fill="none" xmlns="http://www.w3.org/2000/svg">
<g id="language">
<path id="Vector" d="M12.49 2.5C6.97 2.5 2.5 6.98 2.5 12.5C2.5 18.02 6.97 22.5 12.49 22.5C18.02 22.5 22.5 18.02 22.5 12.5C22.5 6.98 18.02 2.5 12.49 2.5ZM19.42 8.5H16.47C16.15 7.25 15.69 6.05 15.09 4.94C16.93 5.57 18.46 6.85 19.42 8.5ZM12.5 4.54C13.33 5.74 13.98 7.07 14.41 8.5H10.59C11.02 7.07 11.67 5.74 12.5 4.54ZM4.76 14.5C4.6 13.86 4.5 13.19 4.5 12.5C4.5 11.81 4.6 11.14 4.76 10.5H8.14C8.06 11.16 8 11.82 8 12.5C8 13.18 8.06 13.84 8.14 14.5H4.76ZM5.58 16.5H8.53C8.85 17.75 9.31 18.95 9.91 20.06C8.07 19.43 6.54 18.16 5.58 16.5ZM8.53 8.5H5.58C6.54 6.84 8.07 5.57 9.91 4.94C9.31 6.05 8.85 7.25 8.53 8.5ZM12.5 20.46C11.67 19.26 11.02 17.93 10.59 16.5H14.41C13.98 17.93 13.33 19.26 12.5 20.46ZM14.84 14.5H10.16C10.07 13.84 10 13.18 10 12.5C10 11.82 10.07 11.15 10.16 10.5H14.84C14.93 11.15 15 11.82 15 12.5C15 13.18 14.93 13.84 14.84 14.5ZM15.09 20.06C15.69 18.95 16.15 17.75 16.47 16.5H19.42C18.46 18.15 16.93 19.43 15.09 20.06ZM16.86 14.5C16.94 13.84 17 13.18 17 12.5C17 11.82 16.94 11.16 16.86 10.5H20.24C20.4 11.14 20.5 11.81 20.5 12.5C20.5 13.19 20.4 13.86 20.24 14.5H16.86Z" fill="#34693F"/>
</g>
</svg>
